<svg xmlns="http://www.w3.org/2000/svg" width="40.568" height="36.084" viewBox="0 0 40.568 36.084">
    <defs>
        <style>
            .cls-1,.cls-2{fill:#fff}.cls-2{stroke:#4fc1dc;stroke-width:2px}.cls-3{fill:#4fc1db;font-size:11px;font-family:Roboto-Black,Roboto;font-weight:800}.cls-4{stroke:none}.cls-5{fill:none}
        </style>
    </defs>
    <g id="cart" transform="translate(-1603.399 -37.883)">
        <g id="shopping-bag_1_" data-name="shopping-bag (1)" transform="translate(1554.6 37.883)">
            <path id="Path_1153" d="M75.393 28.727L73.49 7.3a.916.916 0 0 0-.911-.836h-3.914a6.566 6.566 0 0 0-13.13 0H51.62a.911.911 0 0 0-.911.836l-1.9 21.428c0 .027-.007.054-.007.082a4.736 4.736 0 0 0 4.988 4.424h16.622a4.736 4.736 0 0 0 4.988-4.425.331.331 0 0 0-.007-.082zM62.1 1.835a4.735 4.735 0 0 1 4.73 4.628h-9.46a4.735 4.735 0 0 1 4.73-4.628zM70.412 31.4H53.788a2.928 2.928 0 0 1-3.153-2.549L52.456 8.3h3.072v2.786a.917.917 0 1 0 1.835 0V8.3h9.467v2.786a.917.917 0 1 0 1.835 0V8.3h3.072l1.828 20.55a2.932 2.932 0 0 1-3.153 2.55z" class="cls-1" data-name="Path 1153"/>
        </g>
        <g id="Ellipse_52" class="cls-2" data-name="Ellipse 52" transform="translate(1623 53)">
            <ellipse cx="10.484" cy="10.484" class="cls-4" rx="10.484" ry="10.484"/>
            <ellipse cx="10.484" cy="10.484" class="cls-5" rx="9.484" ry="9.484"/>
        </g>
        <text id="_5" class="cls-3" data-name="5" transform="translate(1630 67)">
            <tspan x="0" y="0">5</tspan>
        </text>
    </g>
</svg>
