<svg xmlns="http://www.w3.org/2000/svg" id="drop" width="22.03" height="22.03" viewBox="0 0 22.03 22.03">
    <defs>
        <style>
            .cls-1{fill:#fff}
        </style>
    </defs>
    <path id="Path_1149" d="M3.788 22.03h14.455a3.792 3.792 0 0 0 3.787-3.788V3.787A3.792 3.792 0 0 0 18.243 0H3.788A3.792 3.792 0 0 0 0 3.787v14.456a3.792 3.792 0 0 0 3.788 3.787zM2.05 3.787A1.739 1.739 0 0 1 3.788 2.05h14.455a1.739 1.739 0 0 1 1.737 1.737v14.456a1.74 1.74 0 0 1-1.737 1.738H3.788a1.739 1.739 0 0 1-1.738-1.738z" class="cls-1" data-name="Path 1149"/>
    <path id="Path_1150" d="M21.714 26.451l1.449 1.449 1.449-1.449 3.258-3.257-1.449-1.449-2.211 2.209v-5.421h-2.05V24l-2.254-2.254-1.449 1.449 3.258 3.257z" class="cls-1" data-name="Path 1150" transform="translate(-12.151 -12.201)"/>
</svg>
